<?xml version="1.0" encoding="utf-8"?>
<!-- Generator: Adobe Illustrator 19.2.1, SVG Export Plug-In . SVG Version: 6.00 Build 0)  -->
<svg version="1.1" id="レイヤー_1" xmlns="http://www.w3.org/2000/svg" xmlns:xlink="http://www.w3.org/1999/xlink" x="0px"
	 y="0px" viewBox="0 0 160 160" style="enable-background:new 0 0 160 160;" xml:space="preserve">
<style type="text/css">
	.st0{fill:#009245;stroke:#000000;stroke-miterlimit:10;}
	.st1{fill:#ED1C24;stroke:#000000;stroke-miterlimit:10;}
</style>
<path class="st0" d="M105.2,132.2l-50.9,9.6c-8.7,0-41.7-16.4-41.7-25.3V61.8c0-8.9,12.7-28.3,21.4-28.3
	c15.4,0.8,34.4-21.2,49.8-20.4c15.7,0.8,27.8,24.3,43.4,25.1c1.5-0.1,7.3,0.1,13.4,4.1c4,2.6,6.9,6.3,6.9,10.7v63.6
	C147.4,125.4,112.1,142.1,105.2,132.2z"/>
<circle class="st1" cx="46.1" cy="60.1" r="11.3"/>
<circle class="st1" cx="82.1" cy="84.3" r="9.6"/>
<circle class="st1" cx="49.4" cy="113.6" r="11.3"/>
<circle class="st1" cx="121.2" cy="105.2" r="11.3"/>
<circle class="st1" cx="105.9" cy="47" r="12.4"/>
</svg>
